<svg data-v-0dd9719b="" version="1.0" xmlns="http://www.w3.org/2000/svg" xmlns:xlink="http://www.w3.org/1999/xlink" width="100%" height="100%" viewBox="0 0 340.000000 250.000000" preserveAspectRatio="xMidYMid meet" color-interpolation-filters="sRGB" style="margin: auto;"> <rect data-v-0dd9719b="" x="0" y="0" width="100%" height="100%" fill="#fff" fill-opacity="1" class="background"></rect> <rect data-v-0dd9719b="" x="0" y="0" width="100%" height="100%" fill="url(#watermark)" fill-opacity="1" class="watermarklayer"></rect> <g data-v-0dd9719b="" fill="#0dbde1" class="icon-text-wrapper icon-svg-group iconsvg" transform="translate(49.19999694824219,104.85644340515137)"><g class="iconsvg-imagesvg" transform="translate(0,0)"><g><rect fill="#0dbde1" fill-opacity="0" stroke-width="2" x="0" y="0" width="60" height="40.28711282405946" class="image-rect"></rect> <svg x="0" y="0" width="60" height="40.28711282405946" filtersec="colorsb7721289535" class="image-svg-svg primary" style="overflow: visible;"><svg xmlns="http://www.w3.org/2000/svg" viewBox="-9.5367431640625e-7 0 82.20999908447266 55.20000076293945"><defs><linearGradient id="a326e175c-c6bd-4b1a-8a9e-b2fe9f9e75f2" x1="-2.39" y1="52.8" x2="53.2" y2="-2.79" gradientUnits="userSpaceOnUse"><stop offset="0" stop-color="#a8083f"></stop><stop offset=".54" stop-color="#ca0a4b"></stop><stop offset=".69" stop-color="#c40a49"></stop><stop offset=".89" stop-color="#b50943"></stop><stop offset="1" stop-color="#a8083f"></stop></linearGradient><linearGradient id="b13223bbd-d83f-4346-a121-fe41445492fe" x1="9.92" y1="65.12" x2="78.63" y2="-3.59" gradientUnits="userSpaceOnUse"><stop offset="0" stop-color="#0baccc"></stop><stop offset=".12" stop-color="#0bb0d1"></stop><stop offset=".61" stop-color="#0dbde1"></stop><stop offset="1" stop-color="#0dc2e6"></stop></linearGradient></defs><g><g><path d="M53.64 0H41.79C33.1 0 26.29 2.36 21 7.22c-3.84 3.5-6.91 8.36-9.35 14.81C11.29 22.86 0 55.2 0 55.2L19.76 51C22.92 42.22 30 22.52 30 22.38c2.17-5.17 6.72-11.65 20.17-11.69H62S60 0 53.64 0z" fill="url(#a326e175c-c6bd-4b1a-8a9e-b2fe9f9e75f2)"></path><path d="M56.1 19.84L50.71 33.6c-2.55 5.58-7.57 10.91-19.94 10.91h-4.33C3.7 44.51 7.55 33.59 7.55 33.59 4.78 41.52 0 55.19 0 55.2h40.09c8.69 0 15.5-2.37 20.83-7.22 4.34-4 7.69-9.65 10.27-17.39L82.21 0H52.05s11.73.11 4.05 19.84z" fill="url(#b13223bbd-d83f-4346-a121-fe41445492fe)"></path></g></g></svg></svg> <!----></g></g> <g transform="translate(67,2.8785552978515625)"><g data-gra="path-name" fill-rule="" class="tp-name iconsvg-namesvg"><g transform="scale(1)"><g><path d="M35.01-16.82L35.01-16.82Q35.01-8.35 30.86-3.95 26.71 0.46 18.7 0.46L18.7 0.46Q10.81 0.46 6.6-3.97 2.39-8.4 2.39-16.86L2.39-16.86Q2.39-25.24 6.57-29.66 10.76-34.07 18.75-34.07L18.75-34.07Q26.75-34.07 30.88-29.69 35.01-25.31 35.01-16.82ZM11.93-16.82L11.93-16.82Q11.93-7.09 18.7-7.09L18.7-7.09Q22.14-7.09 23.8-9.45 25.47-11.82 25.47-16.82L25.47-16.82Q25.47-21.84 23.78-24.24 22.1-26.64 18.75-26.64L18.75-26.64Q11.93-26.64 11.93-16.82ZM56.24 0L47.36 0 37.45-26 46.81-26 51.21-10.62Q51.24-10.51 51.3-10.23 51.37-9.96 51.44-9.58 51.51-9.2 51.57-8.78 51.63-8.35 51.63-7.98L51.63-7.98 51.79-7.98Q51.79-9.18 52.2-10.58L52.2-10.58 56.81-26 66.15-26 56.24 0ZM92.42 0L86.2 0 84.48-3.44 84.3-3.44Q82.49-1.19 80.6-0.37 78.72 0.46 75.74 0.46L75.74 0.46Q72.07 0.46 69.96-1.74 67.85-3.95 67.85-7.94L67.85-7.94Q67.85-12.09 70.74-14.12 73.63-16.15 79.11-16.41L79.11-16.41 83.45-16.54 83.45-16.91Q83.45-20.12 80.28-20.12L80.28-20.12Q77.44-20.12 73.06-18.2L73.06-18.2 70.46-24.11Q75.01-26.46 81.93-26.46L81.93-26.46Q86.94-26.46 89.68-23.98 92.42-21.5 92.42-17.05L92.42-17.05 92.42 0ZM79.55-5.87L79.55-5.87Q81.18-5.87 82.34-6.91 83.5-7.94 83.5-9.59L83.5-9.59 83.5-11.61 81.43-11.52Q77-11.36 77-8.26L77-8.26Q77-5.87 79.55-5.87ZM123.9 0L114.93 0 114.93-14.18Q114.93-16.77 114.18-18.09 113.44-19.41 111.79-19.41L111.79-19.41Q109.51-19.41 108.5-17.6 107.5-15.79 107.5-11.38L107.5-11.38 107.5 0 98.52 0 98.52-26 105.29-26 106.42-22.78 106.94-22.78Q108.09-24.62 110.12-25.54 112.15-26.46 114.79-26.46L114.79-26.46Q119.11-26.46 121.5-23.95 123.9-21.45 123.9-16.91L123.9-16.91 123.9 0ZM149.55-6.86L149.55 0 128.03 0 128.03-5.12 138.79-19.14 128.65-19.14 128.65-26 149.05-26 149.05-20.44 138.75-6.86 149.55-6.86ZM176.99 0L170.78 0 169.06-3.44 168.87-3.44Q167.06-1.19 165.18-0.37 163.3 0.46 160.31 0.46L160.31 0.46Q156.64 0.46 154.53-1.74 152.42-3.95 152.42-7.94L152.42-7.94Q152.42-12.09 155.31-14.12 158.2-16.15 163.69-16.41L163.69-16.41 168.02-16.54 168.02-16.91Q168.02-20.12 164.86-20.12L164.86-20.12Q162.01-20.12 157.63-18.2L157.63-18.2 155.04-24.11Q159.58-26.46 166.51-26.46L166.51-26.46Q171.51-26.46 174.25-23.98 176.99-21.5 176.99-17.05L176.99-17.05 176.99 0ZM164.12-5.87L164.12-5.87Q165.75-5.87 166.91-6.91 168.07-7.94 168.07-9.59L168.07-9.59 168.07-11.61 166-11.52Q161.58-11.36 161.58-8.26L161.58-8.26Q161.58-5.87 164.12-5.87Z" transform="translate(-2.390000104904175, 34.06999969482422)"></path></g> <!----> <!----> <!----> <!----> <!----> <!----> <!----></g></g> <!----></g></g><defs v-gra="od"></defs></svg>